<?xml version="1.0" encoding="UTF-8" standalone="no"?>
<!-- Created with Inkscape (http://www.inkscape.org/) -->

<svg
   xmlns:dc="http://purl.org/dc/elements/1.1/"
   xmlns:cc="http://creativecommons.org/ns#"
   xmlns:rdf="http://www.w3.org/1999/02/22-rdf-syntax-ns#"
   xmlns:svg="http://www.w3.org/2000/svg"
   xmlns="http://www.w3.org/2000/svg"
   xmlns:sodipodi="http://sodipodi.sourceforge.net/DTD/sodipodi-0.dtd"
   xmlns:inkscape="http://www.inkscape.org/namespaces/inkscape"
   width="375"
   height="375"
   viewBox="0 0 99.218757 99.218747"
   version="1.1"
   id="svg8"
   sodipodi:docname="yofl_icon.svg"
   inkscape:export-filename="yofl.png"
   inkscape:export-xdpi="4.0999999"
   inkscape:export-ydpi="4.0999999"
   inkscape:version="0.92.3 (2405546, 2018-03-11)">
  <title
     id="title828">yofl</title>
  <defs
     id="defs2" />
  <sodipodi:namedview
     id="base"
     pagecolor="#ffffff"
     bordercolor="#666666"
     borderopacity="1.0"
     inkscape:pageopacity="1"
     inkscape:pageshadow="2"
     inkscape:zoom="0.42143564"
     inkscape:cx="187.5"
     inkscape:cy="187.5"
     inkscape:document-units="mm"
     inkscape:current-layer="text1379"
     showgrid="false"
     fit-margin-top="10"
     fit-margin-bottom="10"
     fit-margin-right="20"
     fit-margin-left="20"
     inkscape:window-width="1858"
     inkscape:window-height="1061"
     inkscape:window-x="57"
     inkscape:window-y="-5"
     inkscape:window-maximized="1"
     showguides="true"
     inkscape:pagecheckerboard="true"
     units="px"
     inkscape:snap-to-guides="true">
    <inkscape:grid
       type="xygrid"
       id="grid858" />
  </sodipodi:namedview>
  <metadata
     id="metadata5">
    <rdf:RDF>
      <cc:Work
         rdf:about="">
        <dc:format>image/svg+xml</dc:format>
        <dc:type
           rdf:resource="http://purl.org/dc/dcmitype/StillImage" />
        <dc:title>yofl</dc:title>
        <dc:creator>
          <cc:Agent>
            <dc:title>Petr Doležal</dc:title>
          </cc:Agent>
        </dc:creator>
        <cc:license
           rdf:resource="http://creativecommons.org/licenses/by-nc-nd/4.0/" />
      </cc:Work>
      <cc:License
         rdf:about="http://creativecommons.org/licenses/by-nc-nd/4.0/">
        <cc:permits
           rdf:resource="http://creativecommons.org/ns#Reproduction" />
        <cc:permits
           rdf:resource="http://creativecommons.org/ns#Distribution" />
        <cc:requires
           rdf:resource="http://creativecommons.org/ns#Notice" />
        <cc:requires
           rdf:resource="http://creativecommons.org/ns#Attribution" />
        <cc:prohibits
           rdf:resource="http://creativecommons.org/ns#CommercialUse" />
      </cc:License>
    </rdf:RDF>
  </metadata>
  <g
     inkscape:label="Graphics"
     inkscape:groupmode="layer"
     id="layer1"
     transform="translate(572.94229,106.45356)">
    <g
       aria-label="Yetamine"
       style="font-style:normal;font-variant:normal;font-weight:500;font-stretch:normal;font-size:50.79999924px;line-height:125%;font-family:'Hobo Std';-inkscape-font-specification:'Hobo Std, Medium';font-variant-ligatures:normal;font-variant-caps:normal;font-variant-numeric:normal;font-feature-settings:normal;text-align:start;letter-spacing:0px;word-spacing:0px;writing-mode:lr-tb;text-anchor:start;fill:#000000;fill-opacity:1;stroke:none;stroke-width:0.26458332px;stroke-linecap:butt;stroke-linejoin:miter;stroke-opacity:1"
       id="text3715-5">
      <g
         id="g5384">
        <g
           aria-label="yofl"
           style="font-style:normal;font-variant:normal;font-weight:500;font-stretch:normal;font-size:16.93333244px;line-height:125%;font-family:'Hobo Std';-inkscape-font-specification:'Hobo Std, Medium';font-variant-ligatures:normal;font-variant-caps:normal;font-variant-numeric:normal;font-feature-settings:normal;text-align:start;letter-spacing:0px;word-spacing:0px;writing-mode:lr-tb;text-anchor:start;fill:#000000;fill-opacity:1;stroke:none;stroke-width:0.26458332px;stroke-linecap:butt;stroke-linejoin:miter;stroke-opacity:1"
           id="text1379">
          <g
             id="g826"
             transform="translate(-628.6847,-136.92356)">
            <path
               inkscape:connector-curvature="0"
               id="path1389"
               style="font-style:normal;font-variant:normal;font-weight:500;font-stretch:normal;font-size:50.79999924px;font-family:'Hobo Std';-inkscape-font-specification:'Hobo Std, Medium';font-variant-ligatures:normal;font-variant-caps:normal;font-variant-numeric:normal;font-feature-settings:normal;text-align:start;writing-mode:lr-tb;text-anchor:start;stroke-width:0.26458332px"
               d="m 64.670921,101.03122 c 0,1.1684 0.0508,1.9304 1.2192,1.9304 11.175999,0 22.656799,-14.427197 22.199599,-29.311596 0,-2.1844 0.1524,-3.81 -0.8128,-3.9624 h -4.5212 c -0.5588,0 -1.8288,-0.1524 -1.8288,0.762 0,0.8128 0.5588,2.9464 0.5588,5.4864 0,3.911599 -1.3716,10.007599 -3.4036,10.007599 -1.016,0 -5.9944,-5.588 -5.9944,-11.531599 0,-1.524 0.4572,-3.0988 0.4572,-3.81 0,-1.0668 -1.1176,-0.9144 -1.778,-0.9144 h -4.1656 c -1.981199,0 -1.930399,0.1016 -1.930399,2.3876 0,14.122399 8.839199,17.729199 8.839199,19.862799 0,0.6604 -1.524,2.54 -7.365999,2.54 -1.3716,0 -1.4732,1.4732 -1.4732,2.0828 z" />
            <path
               inkscape:connector-curvature="0"
               id="path1391"
               style="font-style:normal;font-variant:normal;font-weight:500;font-stretch:normal;font-size:50.79999924px;font-family:'Hobo Std';-inkscape-font-specification:'Hobo Std, Medium';font-variant-ligatures:normal;font-variant-caps:normal;font-variant-numeric:normal;font-feature-settings:normal;text-align:start;writing-mode:lr-tb;text-anchor:start;fill:#800000;fill-opacity:1;stroke-width:0.26458332px"
               d="m 103.26225,102.96162 c 5.842,0 12.7508,-5.130797 12.7508,-17.068797 0,-8.1788 -3.9116,-16.967199 -12.7508,-16.967199 -8.839199,0 -12.750799,8.788399 -12.750799,16.967199 0,11.938 6.9088,17.068797 12.750799,17.068797 z m 0,-8.483597 c -5.130799,0 -6.451599,-5.7912 -6.451599,-9.8552 0,-4.0132 1.4224,-9.702799 6.451599,-9.702799 5.0292,0 6.4516,5.689599 6.4516,9.702799 0,4.064 -1.3208,9.8552 -6.4516,9.8552 z" />
            <path
               inkscape:connector-curvature="0"
               id="path1393"
               style="font-style:normal;font-variant:normal;font-weight:500;font-stretch:normal;font-size:50.79999924px;font-family:'Hobo Std';-inkscape-font-specification:'Hobo Std, Medium';font-variant-ligatures:normal;font-variant-caps:normal;font-variant-numeric:normal;font-feature-settings:normal;text-align:start;writing-mode:lr-tb;text-anchor:start;stroke-width:0.26458332px"
               d="m 143.99988,102.19962 c 0.5588,0 1.8796,0.254 1.8796,-0.6096 0,-0.6604 -1.9304,-7.518397 -1.9304,-21.488397 0,-12.649199 2.1336,-18.694399 2.0828,-19.507199 0.0508,-1.0668 -3.2512,-1.7272 -13.6652,-1.7272 -4.6736,0 -7.8232,1.9812 -8.7884,5.1308 -0.7112,2.286 -0.7112,5.6896 -2.9972,5.6896 -1.9304,0 -3.048,0.4572 -3.048,4.318 0,0.9144 -0.0508,1.5748 0.6096,1.5748 0.5588,0 1.0668,-0.6096 1.9812,-0.6096 2.286,0 1.8288,2.895599 1.8288,4.419599 -0.1524,2.54 -0.1524,5.08 -0.1524,7.62 0.0508,16.713197 0.9144,15.189197 1.6764,15.189197 h 5.4356 c 0.9144,0 1.6256,0.2032 1.6256,-0.9144 0,-0.6604 -1.8796,-14.173197 -1.8796,-20.878797 0,-1.9812 -0.1016,-5.435599 2.6924,-5.435599 0.9144,0 1.9304,0.4572 2.3368,0.4572 1.0668,0 1.0668,-1.9304 1.0668,-2.6416 0,-1.7272 -0.0508,-3.0988 -1.9812,-3.0988 -0.6604,0 -1.27,0.254 -1.9304,0.254 -0.762,0 -1.27,-0.6096 -1.27,-1.3208 0,-1.1684 0.254,-3.2512 4.1656,-3.2512 1.9304,0 4.0132,-0.508 4.0132,1.4732 0,1.2192 -0.6604,1.3716 -0.6604,17.170399 0,1.1684 -0.0508,18.186397 1.7272,18.186397 z" />
          </g>
          <rect
             style="font-style:normal;font-variant:normal;font-weight:500;font-stretch:normal;font-size:16.93333244px;line-height:125%;font-family:'Hobo Std';-inkscape-font-specification:'Hobo Std, Medium';font-variant-ligatures:normal;font-variant-caps:normal;font-variant-numeric:normal;font-feature-settings:normal;text-align:start;letter-spacing:0px;word-spacing:0px;writing-mode:lr-tb;text-anchor:start;opacity:1;fill:#800000;fill-opacity:1;fill-rule:nonzero;stroke:#800000;stroke-width:0.24495156;stroke-linecap:butt;stroke-linejoin:round;stroke-miterlimit:4;stroke-dasharray:none;stroke-opacity:1"
             id="rect826-5"
             width="84.666649"
             height="11.786848"
             x="-565.66626"
             y="-94.239212" />
          <rect
             style="font-style:normal;font-variant:normal;font-weight:500;font-stretch:normal;font-size:16.93333244px;line-height:125%;font-family:'Hobo Std';-inkscape-font-specification:'Hobo Std, Medium';font-variant-ligatures:normal;font-variant-caps:normal;font-variant-numeric:normal;font-feature-settings:normal;text-align:start;letter-spacing:0px;word-spacing:0px;writing-mode:lr-tb;text-anchor:start;opacity:1;fill:#000000;fill-opacity:1;fill-rule:nonzero;stroke:#000000;stroke-width:0.24492785;stroke-linecap:butt;stroke-linejoin:round;stroke-miterlimit:4;stroke-dasharray:none;stroke-opacity:1"
             id="rect826-5-2"
             width="84.666626"
             height="11.784564"
             x="-565.6662"
             y="-29.564772" />
        </g>
        <flowRoot
           xml:space="preserve"
           id="flowRoot1381"
           style="font-style:normal;font-variant:normal;font-weight:normal;font-stretch:normal;font-size:64px;line-height:125%;font-family:Verdana;-inkscape-font-specification:Verdana;letter-spacing:0px;word-spacing:0px;fill:#000000;fill-opacity:1;stroke:none;stroke-width:1px;stroke-linecap:butt;stroke-linejoin:miter;stroke-opacity:1"
           transform="matrix(0.26458333,0,0,0.26458333,-9.7561911,50.200453)"><flowRegion
             id="flowRegion1383"><rect
               id="rect1385"
               width="637.14288"
               height="285.71429"
               x="202.85715"
               y="30.817974" /></flowRegion><flowPara
             id="flowPara1387" /></flowRoot>      </g>
    </g>
  </g>
</svg>
